<svg id="bold" enable-background="new 0 0 24 24" height="512" viewBox="0 0 24 24" width="512" xmlns="http://www.w3.org/2000/svg"><g><path d="m20 19c-1.103 0-2-.897-2-2s.897-2 2-2 2 .897 2 2-.897 2-2 2z"/><path d="m23.25 24h-6.5c-.414 0-.75-.336-.75-.75v-.5c0-1.517 1.233-2.75 2.75-2.75h2.5c1.517 0 2.75 1.233 2.75 2.75v.5c0 .414-.336.75-.75.75z"/><path d="m14 14.5c0 2.43-6.284 2.5-7 2.5s-7-.07-7-2.5v-4c0 2.43 6.284 2.5 7 2.5s7-.07 7-2.5z"/><path d="m14 8.5c0 2.43-6.284 2.5-7 2.5s-7-.07-7-2.5v-4c0 2.43 6.284 2.5 7 2.5s7-.07 7-2.5z"/><path d="m7 5c-.716 0-7-.07-7-2.5s6.284-2.5 7-2.5 7 .07 7 2.5-6.284 2.5-7 2.5z"/></g></svg>