<svg id="Layer_1" enable-background="new 0 0 512 512" height="512" viewBox="0 0 512 512" width="512" xmlns="http://www.w3.org/2000/svg"><g clip-rule="evenodd" fill-rule="evenodd"><path d="m373.447 320.229h-2.862c-30.244 27.747-70.478 44.697-114.585 44.697s-84.341-16.95-114.585-44.697h-2.862c-76.398 0-138.553 62.046-138.553 138.312v38.396c0 8.284 6.714 14.999 14.998 15l326.159.043v-21.713h-6.768c-22.272 0-40.392-18.12-40.392-40.393v-7.562c-5.779-2.084-9.909-7.617-9.909-14.114 0-8.284 6.716-15 15-15h.618c13.395 0 24.292 10.897 24.292 24.292v12.385c0 5.633 4.759 10.393 10.392 10.393h6.768v-31.449c0-8.284 6.716-15 15-15s15 6.716 15 15v31.449h6.768c5.633 0 10.392-4.759 10.392-10.393v-12.385c0-13.395 10.897-24.292 24.292-24.292h.617c8.284 0 15 6.716 15 15 0 6.497-4.131 12.029-9.909 14.114v7.563c0 22.272-18.12 40.393-40.392 40.393h-6.768v21.717l125.84.015h.001c3.978 0 7.793-1.58 10.606-4.393 2.814-2.813 4.395-6.628 4.395-10.607v-38.459c0-76.266-62.155-138.312-138.553-138.312z"/><path d="m199 212c8.271 0 15-6.729 15-15s-6.729-15-15-15-15 6.729-15 15 6.729 15 15 15z"/><path d="m243.536 48.672c2.655-4.729 7.656-7.656 13.079-7.656s10.424 2.927 13.079 7.656c17.688 31.498 51.084 51.065 87.158 51.065 10.779 0 21.329-1.693 31.426-5.039-19.06-54.969-71.271-94.698-132.278-94.698-60.869 0-112.98 39.549-132.146 94.325 10.426 3.591 21.345 5.413 32.525 5.413 36.072 0 69.469-19.568 87.157-51.066z"/><path d="m313 212c8.271 0 15-6.729 15-15s-6.729-15-15-15-15 6.729-15 15 6.729 15 15 15z"/><path d="m256 334.925c76.999 0 140-63.283 140-140.627v-53.671c0-5.611-.342-11.146-.986-16.59-12.317 3.785-25.116 5.701-38.162 5.701-39.109 0-75.795-17.682-100.237-47.293-24.442 29.611-61.128 47.293-100.237 47.293-13.476 0-26.673-2.04-39.35-6.071-.674 5.563-1.029 11.222-1.029 16.961v53.671c.001 77.344 63.002 140.626 140.001 140.626zm-57-182.925c16.575 0 31.076 9.015 38.884 22.392 5.702-2.346 11.857-3.616 18.116-3.616 6.34 0 12.481 1.236 18.15 3.558 7.816-13.346 22.299-22.334 38.85-22.334 24.813 0 45 20.187 45 45s-20.187 45-45 45c-21.575 0-39.645-15.265-43.996-35.56-3.356-3.613-8.014-5.664-13.004-5.664-4.919 0-9.666 2.097-13.005 5.668-4.352 20.293-22.421 35.556-43.995 35.556-24.813 0-45-20.187-45-45s20.187-45 45-45z"/></g></svg>