<svg id="Layer_1" height="512" viewBox="0 0 512 512" width="512" xmlns="http://www.w3.org/2000/svg" data-name="Layer 1"><path d="m88 388h55v55h-55z"/><path d="m126 41.766a26 26 0 0 0 -52 0v43.234h52z"/><path d="m330 42.326a26 26 0 1 0 -52 0v42.674h52z"/><path d="m277.39 457.279 17.573-6.404-11.169-11.169z"/><path d="m329.646 438.235-33.213-33.213-8.863 24.319 17.757 17.756z"/><path d="m414.727 282.923-113.232 113.02 15.235 15.235 113.125-113.126z"/><path d="m438.707 258.988-16.9 16.871 37 37 16.871-16.9a26.144 26.144 0 0 0 -36.974-36.973z"/><path d="m340.439 444.947-69.71 25.406a4.987 4.987 0 0 1 -6.411-6.383l10.569-28.97h-89.346a5 5 0 1 1 0-10h92.99l11.2-30.741a5.165 5.165 0 0 1 1.176-1.858l85.093-84.912v-213.789a24.8 24.8 0 0 0 -25.04-24.7h-10.96v20.555c0 2.761-1.741 5.445-4.5 5.445h-62.654c-2.762 0-4.846-2.684-4.846-5.445v-20.555h-132v20.555a5.683 5.683 0 0 1 -5.325 5.445h-61.532a5.522 5.522 0 0 1 -5.143-5.445v-20.555h-10.32a24.5 24.5 0 0 0 -24.68 24.7v377.3a24.757 24.757 0 0 0 24.68 25h297.28a25.063 25.063 0 0 0 25.04-25v-60.977l-33.713 33.757a5.09 5.09 0 0 1 -1.848 1.167zm-154.898-276.947h89.439a5 5 0 0 1 0 10h-89.439a5 5 0 0 1 0-10zm0 29h135.622a5 5 0 0 1 0 10h-135.622a5 5 0 0 1 0-10zm0 84h89.439a5 5 0 0 1 0 10h-89.439a5 5 0 0 1 0-10zm0 29h135.622a5 5 0 0 1 0 10h-135.622a5 5 0 0 1 0-10zm0 86h89.439a5 5 0 0 1 0 10h-89.439a5 5 0 1 1 0-10zm-128.541-178a5 5 0 0 1 -10 0v-92a5 5 0 0 1 10 0zm0-112a5 5 0 0 1 -10 0v-2a5 5 0 0 1 10 0zm21 49.412a5.794 5.794 0 0 1 5.478-5.412h53.266a5 5 0 1 1 0 10h-48.744v55h55v-5.678a5 5 0 0 1 10 0v10.624a5.038 5.038 0 0 1 -4.989 5.054h-64.533c-2.762 0-5.478-2.293-5.478-5.054zm75 292.588a5 5 0 0 1 -5 5h-65a5 5 0 0 1 -5-5v-65a5 5 0 0 1 5-5h65a5 5 0 0 1 5 5zm0-114.933a4.934 4.934 0 0 1 -4.989 4.933h-64.533c-2.762 0-5.478-2.171-5.478-4.933v-64.533c0-2.762 2.716-4.534 5.478-4.534h53.266a5 5 0 1 1 0 10h-48.744v54h55v-5.556a5 5 0 0 1 10 0zm3.817-44.275-28.166 23.614a5 5 0 0 1 -6.747-.3l-12.071-12.071a5 5 0 1 1 7.07-7.072l8.833 8.833 24.658-20.672a5 5 0 1 1 6.423 7.664zm0-113.122-28.166 23.614a5 5 0 0 1 -6.747-.3l-12.071-12.071a5 5 0 0 1 7.07-7.071l8.833 8.833 24.658-20.672a5 5 0 1 1 6.423 7.663z"/><path d="m323.801 418.249 14.924 14.923 113.02-113.231-14.818-14.818z"/></svg>