<svg height="512" viewBox="0 0 64 64" width="512" xmlns="http://www.w3.org/2000/svg"><path d="m14 36h6v6h-6z"/><path d="m50 9v46a1 1 0 0 1 -1 1h-3v-43a3.009 3.009 0 0 0 -3-3h-4v-2h10a1 1 0 0 1 1 1z"/><path d="m56 5v46a1 1 0 0 1 -1 1h-3v-43a3.009 3.009 0 0 0 -3-3h-8v-2h14a1 1 0 0 1 1 1z"/><path d="m14 22h6v6h-6z"/><path d="m43 12h-6v1a3.009 3.009 0 0 1 -3 3h-16a3.009 3.009 0 0 1 -3-3v-1h-6a1 1 0 0 0 -1 1v46a1 1 0 0 0 1 1h34a1 1 0 0 0 1-1v-46a1 1 0 0 0 -1-1zm-17 9h4v2h-4zm0 6h4v2h-4zm0 8h4v2h-4zm0 6h4v2h-4zm-14-20a1 1 0 0 1 1-1h8a1 1 0 0 1 1 1v8a1 1 0 0 1 -1 1h-8a1 1 0 0 1 -1-1zm0 14a1 1 0 0 1 1-1h8a1 1 0 0 1 1 1v8a1 1 0 0 1 -1 1h-8a1 1 0 0 1 -1-1zm28 21h-28v-2h28zm0-6h-28v-2h28zm0-7h-8v-2h8zm0-6h-8v-2h8zm0-8h-8v-2h8zm0-6h-8v-2h8z"/><path d="m34 8a3.009 3.009 0 0 1 -3-3 1 1 0 0 0 -1-1h-8a1 1 0 0 0 -1 1 3.009 3.009 0 0 1 -3 3 1 1 0 0 0 -1 1v4a1 1 0 0 0 1 1h16a1 1 0 0 0 1-1v-4a1 1 0 0 0 -1-1zm-5 0h-6v-2h6z"/></svg>