<svg id="Capa_1" enable-background="new 0 0 512 512" height="512" viewBox="0 0 512 512" width="512" xmlns="http://www.w3.org/2000/svg"><g><path d="m271 30c8.276 0 15-6.724 15-15v-15h-60v15c0 8.276 6.724 15 15 15z"/><path d="m151 0c-24.814 0-45 20.186-45 45v422c0 24.814 20.186 45 45 45h210c24.814 0 45-20.186 45-45v-422c0-24.814-20.186-45-45-45h-45v15c0 24.814-20.186 45-45 45h-30c-24.814 0-45-20.186-45-45v-15zm90 151h90c8.291 0 15 6.709 15 15s-6.709 15-15 15h-90c-8.291 0-15-6.709-15-15s6.709-15 15-15zm0 60h90c8.291 0 15 6.709 15 15s-6.709 15-15 15h-90c-8.291 0-15-6.709-15-15s6.709-15 15-15zm0 60h90c8.291 0 15 6.709 15 15s-6.709 15-15 15h-90c-8.291 0-15-6.709-15-15s6.709-15 15-15zm0 60h90c8.291 0 15 6.709 15 15s-6.709 15-15 15h-90c-8.291 0-15-6.709-15-15s6.709-15 15-15zm0 91h30c8.291 0 15 6.709 15 15s-6.709 15-15 15h-30c-8.291 0-15-6.709-15-15s6.709-15 15-15zm-60-61c-8.284 0-15-6.716-15-15 0-8.286 6.716-15 15-15s15 6.714 15 15c0 8.284-6.716 15-15 15zm0-60c-8.284 0-15-6.716-15-15 0-8.286 6.716-15 15-15s15 6.714 15 15c0 8.284-6.716 15-15 15zm0-60c-8.284 0-15-6.716-15-15 0-8.286 6.716-15 15-15s15 6.714 15 15c0 8.284-6.716 15-15 15zm0-60c-8.284 0-15-6.716-15-15 0-8.286 6.716-15 15-15s15 6.714 15 15c0 8.284-6.716 15-15 15z"/></g></svg>