<?xml version="1.0" encoding="iso-8859-1"?>
<!-- Generator: Adobe Illustrator 19.0.0, SVG Export Plug-In . SVG Version: 6.00 Build 0)  -->
<svg xmlns="http://www.w3.org/2000/svg" xmlns:xlink="http://www.w3.org/1999/xlink" version="1.1" id="Layer_1" x="0px" y="0px" viewBox="0 0 496 496" style="enable-background:new 0 0 496 496;" xml:space="preserve" width="512" height="512">
<g>
	<path d="M361.89,37.98h-44.93v32.99c0,8.28-6.71,15-15,15H96.57c-8.29,0-15-6.72-15-15V37.98H33.21c-6.5,0-11.79,5.29-11.79,11.79   v434.44c0,6.5,5.29,11.79,11.79,11.79h328.68c6.5,0,11.79-5.29,11.79-11.79V49.77C373.68,43.27,368.39,37.98,361.89,37.98z    M70,120.89h95.86c8.28,0,15,6.71,15,15c0,8.28-6.72,15-15,15H70c-8.29,0-15-6.72-15-15C55,127.6,61.71,120.89,70,120.89z    M70,212.45h95.86c8.28,0,15,6.72,15,15c0,8.29-6.72,15-15,15H70c-8.29,0-15-6.71-15-15C55,219.17,61.71,212.45,70,212.45z    M70,304.02h95.86c8.28,0,15,6.71,15,15c0,8.28-6.72,15-15,15H70c-8.29,0-15-6.72-15-15C55,310.73,61.71,304.02,70,304.02z    M70,386.75h129.26c8.29,0,15,6.71,15,15c0,8.28-6.71,15-15,15H70c-8.29,0-15-6.72-15-15C55,393.46,61.71,386.75,70,386.75z    M288.21,466.44H70c-8.29,0-15-6.72-15-15s6.71-15,15-15h218.21c8.29,0,15,6.72,15,15S296.5,466.44,288.21,466.44z M335.71,306.26   l-46.73,46.73c-5.827,5.826-15.33,5.879-21.21,0l-27.06-27.05c-5.85-5.86-5.85-15.36,0-21.22c5.86-5.85,15.36-5.85,21.22,0   c7.742,7.742,4.104,4.102,16.44,16.45c22.289-22.276,13.843-13.832,36.13-36.12c5.86-5.86,15.35-5.86,21.21,0   C341.57,290.9,341.57,300.4,335.71,306.26z M335.71,214.69l-46.73,46.73c-5.834,5.856-15.359,5.872-21.21,0l-27.06-27.05   c-5.85-5.86-5.85-15.36,0-21.21c5.86-5.86,15.36-5.86,21.22,0l16.44,16.44c22.27-22.27,13.849-13.851,36.13-36.12   c5.86-5.86,15.35-5.86,21.21,0C341.57,199.34,341.57,208.84,335.71,214.69z M335.71,123.13l-46.73,46.73   c-5.838,5.838-15.347,5.863-21.21,0l-27.06-27.06c-5.85-5.85-5.85-15.35,0-21.21c5.86-5.86,15.36-5.86,21.22,0   c7.742,7.742,4.104,4.102,16.44,16.45c22.289-22.276,13.843-13.832,36.13-36.12c5.86-5.86,15.35-5.86,21.21,0   C341.57,107.77,341.57,117.27,335.71,123.13z"/>
	<path d="M281.96,0H116.57c-2.761,0-5,2.239-5,5v45.97c0,2.761,2.239,5,5,5h165.39c2.761,0,5-2.239,5-5V5   C286.96,2.239,284.721,0,281.96,0z"/>
	<path d="M443.03,408.695c1.4,4.8,8.21,4.8,9.6,0l17.59-60.49h-44.78L443.03,408.695z"/>
	<rect x="421.08" y="164.135" width="53.5" height="154.07"/>
	<path d="M447.83,88.705c-13.94,0-26.75,10.964-26.75,27.32v18.11h53.5v-18.68C474.58,100.559,462.441,88.705,447.83,88.705z"/>
</g>















</svg>
