<svg height="512" viewBox="0 0 56 52" width="512" xmlns="http://www.w3.org/2000/svg"><g id="Page-1" fill="none" fill-rule="evenodd"><g id="013---Brain-Monitor" fill="rgb(0,0,0)" fill-rule="nonzero" transform="translate(0 -1)"><path id="Shape" d="m55.237 23.224c-.4918309.499836-1.0671304.9099907-1.7 1.212-.50037.2341687-1.0958312.0183699-1.33-.482-.2341687-.50037-.01837-1.0958312.482-1.33.7560019-.3528295 1.3846309-.9304697 1.8-1.654.9400662-1.6499116.5905407-3.733371-.8364908-4.9861733s-3.5382092-1.3296138-5.0525092-.1838267c-.2858125.2143594-.6642734.2599564-.9928203.1196152-.3285469-.1403411-.5572656-.4452994-.6-.8-.0427344-.3547005.1070078-.7052558.3928203-.9196152.7201132-.5385854 1.5530068-.9068228 2.436-1.077-.9379428-5.25703008-5.4960288-9.09455484-10.836-9.123-.029 0-.061 0-.09 0 .058178.3301947.0882856.66472358.09 1 .021263.55228475-.4092153 1.01723704-.9615 1.0385s-1.017237-.40921525-1.0385-.9615c.0047581-1.53543031-.8362458-2.94876278-2.188-3.677-1.2468029-.61468489-2.7223726-.54341191-3.9041284.18857723s-1.902838 2.02134021-1.9078716 3.41142277c0 .55228475-.4477153 1-1 1s-1-.44771525-1-1c-.0003479-.81710564.1674661-1.62554056.493-2.375-1.4501137-1.05702254-3.1985292-1.62605423-4.993-1.625-3.001087.01042531-5.7782325 1.58940056-7.322 4.163-.3994006.67798668-.7023169 1.40835168-.9 2.17-.0903882.3458331-.3584101.61717455-.7031044.71181263-.3446944.09463808-.7136939-.00180498-.968-.25300001-.2543062-.25119503-.3552838-.61897952-.2648956-.96481262.1510078-.55755407.3476724-1.10172623.588-1.627-.4656793-.12982982-.9465701-.19708727-1.43-.2-2.84187649.00397459-5.2138348 2.17014656-5.475 5 1.88416055.0010419 3.65605176.8960789 4.775 2.412.3313708.4418278.2418278 1.0686291-.2 1.4-.4418278.3313708-1.06862914.2418278-1.4-.2-.74856043-1.0168999-1.93729885-1.6157269-3.2-1.612-1.79709257.0011682-3.37280485 1.2006808-3.85235474 2.9326089s.25479643 3.5710678 1.79535474 4.4963911c.47358415.2841505.62715047.8984158.34299997 1.372-.2841505.4735841-.8984158.6271505-1.37199997.343-.65890984-.4006652-1.23413364-.9249542-1.694-1.544-1.95031538 3.6962524-1.52292704 8.1971917 1.08821784 11.4603089s6.90882995 4.6670469 10.94278216 3.5746911c-.1646034-.6998026-.2488148-1.4161027-.251-2.135 0-.169.025-.335.034-.5h-.034c-2.7600532-.0033061-4.99669388-2.2399468-5-5-.00117934-.5560488.44403684-1.0101693 1-1.02.26312132-.0045522.51708119.096588.70503394.2807817.18795274.1841937.2942023.4360587.29496606.6992183v.04c-.00015332.8537225.3634299 1.6670743.9996742 2.2363154.6362443.569241 1.4848789.8404478 2.3333258.7456846l.009-.007c.227728-.8303789.5678755-1.6257386 1.011-2.364.2847028-.473308.899192-.6262028 1.3725-.3415s.6262028.899192.3415 1.3725c-1.1429363 1.8987017-1.3818762 4.2074771-.652 6.3v.006c.8728084 2.5387923 3.0369927 4.416753 5.673443 4.9231034 2.6364503.5063505 5.3423494-.4362734 7.093557-2.4711034.2908562-.2967755.7241256-.4043192 1.12-.278 1.7832226.7057186 3.7040114.9950682 5.616.846.9862729-.0659229 1.9616866-.245101 2.907-.534.5279842-.1620956 1.0874044.1345158 1.2495.6625.1620955.5279842-.1345158 1.0874044-.6625 1.2495-1.0842906.3314565-2.2028567.5381262-3.334.616-.017 0-.037 0-.054 0 .145 2.811 1.135 4.372 6.292 6.091 3.0668429.8433551 5.4858463 3.2023177 6.406 6.247.1275895.4199329.5171424.7051704.956.7h1.2c.2834878.0014214.554257-.117548.7449539-.3273146s.2833988-.4906154.2550461-.7726854c-.267-2.636-1.08-7.076-3.534-9.656-.7169748.254337-1.4552445.4440917-2.206.567-.0528763.0087973-.1063971.0131459-.16.013-.5227379.001342-.9583087-.4001509-.9994633-.921268s.3259948-.9860039.8424633-1.066732c3.4655408-.5650553 6.447566-2.7629638 8.013-5.906-2.7039263 1.4118714-5.9255926 1.4204505-8.637.023-.7565122-.3798896-1.4562693-.8635601-2.079-1.437-2.450302 1.1614318-5.3793434.1453427-6.584-2.284-.2485281-.4937426-.0497426-1.0954719.444-1.344s1.0954719-.0497426 1.344.444c.7406139 1.4826084 2.5428916 2.0841138 4.0255 1.3434999 1.4826083-.7406138 2.0841138-2.5428915 1.3435-4.0254999-.1607695-.3193954-.1389313-.7002985.0572885-.9992267.1962199-.2989282.5370107-.4704673.8940001-.45.3569893.0204672.6759419.2298313.8367114.5492267.9079632 1.8131973.6281001 3.9955761-.708 5.521.4093942.3462081.8565581.6451001 1.333.891 1.0475609.5498913 2.2128838.8374474 3.396.838 2.1140085-.0064996 4.1281075-.9005259 5.551-2.464l.023-.024c.5369887-.5565467.9710406-1.2039002 1.282-1.912.9004683-2.0393042.8569368-4.3717166-.119-6.376zm-18.237-3.224h-3c-.4462082-.0001982-.8382928-.2959957-.961-.725l-.945-3.307-3.12 13.261c-.1063203.4519434-.5097191.7712663-.974.771h-.017c-.4688682-.0078897-.8692795-.3405263-.963-.8l-3.02-15.1-1.02 5.1c-.0950537.4656663-.5047314.800097-.98.8h-7c-.5522847 0-1-.4477153-1-1s.4477153-1 1-1h6.18l1.84-9.2c.0946385-.4660648.5044237-.80100251.98-.80100251s.8853615.33493771.98.80100251l3.1 15.493 2.947-12.526c.1057195-.4417528.4958884-.7567628.95-.767.4566373-.0164038.8643674.2840071.984.725l1.793 6.275h2.246c.5522847 0 1 .4477153 1 1s-.4477153 1-1 1zm6 0h-2c-.5522847 0-1-.4477153-1-1s.4477153-1 1-1h2c.5522847 0 1 .4477153 1 1s-.4477153 1-1 1z"/></g></g></svg>